<?xml version="1.0" ?><!DOCTYPE svg  PUBLIC '-//W3C//DTD SVG 1.1//EN'  'http://www.w3.org/Graphics/SVG/1.1/DTD/svg11.dtd'><svg enable-background="new 0 0 512 512" height="512px" id="flight_x5F_check-in" version="1.1" viewBox="0 0 512 512" width="512px" xml:space="preserve" xmlns="http://www.w3.org/2000/svg" xmlns:xlink="http://www.w3.org/1999/xlink"><path d="M132.586,287.737l118.319,175.205c2.438,3.61,7.752,3.61,10.189,0l118.319-175.205c3.567-5.208,6.098-9.028,6.098-9.028  l-0.033,0.006c15.3-24.677,23.768-54.033,22.69-85.445c-2.69-78.446-65.624-142.617-144.01-146.706  c-87.796-4.581-160.42,65.252-160.42,152.047c0,29.396,8.353,56.832,22.782,80.104C126.521,278.715,129.358,283.021,132.586,287.737  z M256,91.047c59.405,0,107.563,48.158,107.563,107.563c0,59.406-48.158,107.563-107.563,107.563S148.437,258.017,148.437,198.61  C148.437,139.205,196.595,91.047,256,91.047z"/><path d="M187.506,162.638c0.589,0.957,1.383,1.783,2.294,2.441l36.054,26.049l10.33,61.303c0.412,2.442,1.658,4.666,3.525,6.292  l6.418,5.586c1.73,1.506,4.432,0.289,4.449-2.005l0.427-53.006l35.944,25.97c8.204,5.927,19.211,6.188,27.687,0.655l13.846-9.039  c1.573-1.026,1.864-3.212,0.615-4.614l-1.524-1.712c-2.799-3.143-7.042-4.583-11.176-3.795l-15.829,3.021l-73.359-62.315  c-7.147-6.072-16.206-9.632-25.584-9.499c-2.982,0.043-6.106,0.438-9.208,1.384c-5.584,1.702-8.032,8.047-5.043,13.062  C187.415,162.488,187.46,162.563,187.506,162.638z"/><path d="M272.809,181.48c2.206,1.965,5.095,2.988,8.046,2.85l38.469-1.809c1.866-0.419,2.382-2.834,0.85-3.979l-5.683-4.246  c-1.654-1.236-3.686-1.859-5.748-1.765l-46.383-5.086c-1.883-0.207-2.92,2.126-1.506,3.386L272.809,181.48z"/></svg>